# xmcd
# 
# Track frame offsets:
#     150
#     3231
#     44991
#     73326
#     94412
#     123931
#     185550
#     245792
#     271430
# 
# Disc length: 4354
# 
# Revision: 1
# Processed by: cddbd v1.5.2PL0 Copyright (c) Steve Scherf et al.
# Submitted via: fre:ac v1.0.27
# 
DISCID=8c110009
DTITLE=Henrik Freischlader Band - LIVE IN CONCERTS SHOW NO.47 CD 2
DYEAR=2013
DGENRE=Blues Rock
TTITLE0=INTRO SET 2
TTITLE1=I'D RATHER GO BLIND
TTITLE2=I'VE GOT IT GOOD
TTITLE3=DO DID DONE
TTITLE4=THE WRONG WAY
TTITLE5=THE MEMORY OF OUR LOVE
TTITLE6=BREAKOUT
TTITLE7=CROSSTOWN TRAFFIC
TTITLE8=FOXY LADY
EXTD=
EXTT0=
EXTT1=
EXTT2=
EXTT3=
EXTT4=
EXTT5=
EXTT6=
EXTT7=
EXTT8=
PLAYORDER=
